<?xml version="1.0" standalone="no"?>
<!DOCTYPE svg PUBLIC "-//W3C//DTD SVG 20010904//EN"
 "http://www.w3.org/TR/2001/REC-SVG-20010904/DTD/svg10.dtd">
<svg version="1.0" xmlns="http://www.w3.org/2000/svg"
 width="20.000000pt" height="20.000000pt" viewBox="0 0 964.000000 739.000000"
 preserveAspectRatio="xMidYMid meet">

<g transform="translate(0.000000,739.000000) scale(0.100000,-0.100000)"
fill="#000000" stroke="none">
<path d="M4395 6734 c-467 -36 -873 -147 -1274 -350 -148 -75 -421 -246 -510
-321 -161 -132 -224 -189 -342 -309 -245 -251 -431 -509 -577 -800 -317 -631
-419 -1310 -305 -2022 14 -89 24 -164 22 -166 -2 -1 -49 -27 -104 -56 -180
-96 -315 -171 -321 -181 -3 -5 7 -14 22 -19 23 -9 33 -6 68 17 49 32 347 185
352 180 2 -1 19 -58 39 -126 148 -514 412 -975 783 -1362 l101 -105 -167 -150
c-302 -270 -312 -281 -312 -326 l0 -40 123 118 c126 122 389 354 401 354 4 0
24 -16 45 -36 21 -19 79 -67 127 -106 458 -364 973 -588 1569 -680 169 -26
576 -36 767 -18 1246 113 2312 922 2758 2094 141 372 203 718 203 1146 1 450
-62 795 -221 1203 l-46 119 35 31 c19 18 78 72 132 121 408 371 714 751 904
1121 73 144 136 291 131 306 -2 5 -41 -37 -88 -93 -192 -232 -457 -477 -760
-703 -197 -147 -539 -375 -563 -375 -4 0 -38 46 -75 103 -114 169 -227 303
-407 483 -237 238 -458 405 -732 554 -354 193 -723 314 -1138 371 -135 18
-519 32 -640 23z m625 -120 c330 -42 607 -119 894 -250 399 -182 702 -404
1042 -764 142 -151 342 -425 331 -454 -14 -37 -619 -345 -1047 -533 -69 -30
-147 -65 -175 -77 -27 -13 -179 -75 -337 -137 -158 -63 -287 -117 -288 -120 0
-3 27 -41 59 -84 l60 -79 87 -17 87 -18 58 40 c32 21 63 39 68 39 6 0 11 -21
11 -49 0 -81 2 -83 73 -56 416 159 880 388 1181 582 97 63 141 76 80 25 -50
-43 -134 -115 -158 -136 -106 -92 -453 -364 -636 -497 -198 -144 -462 -327
-514 -356 -22 -12 -17 -35 18 -77 l23 -30 219 147 c536 358 945 659 1269 932
103 87 92 85 119 24 71 -162 150 -455 188 -694 25 -162 36 -634 19 -821 -52
-566 -258 -1100 -601 -1559 -129 -172 -338 -394 -505 -535 -27 -23 -61 -52
-75 -64 -180 -156 -566 -375 -839 -476 -412 -154 -880 -220 -1335 -191 -573
38 -1075 203 -1526 502 -141 94 -390 292 -390 310 0 38 850 690 1447 1110 230
162 677 459 1123 744 546 350 803 515 810 522 6 6 -41 93 -51 93 -4 0 -50 -27
-101 -59 -51 -33 -201 -126 -332 -208 -131 -81 -269 -167 -305 -190 -36 -23
-86 -54 -111 -69 -50 -30 -1023 -678 -1110 -739 -368 -257 -657 -475 -905
-684 -124 -104 -422 -370 -470 -420 -21 -23 -44 -41 -51 -41 -15 0 -212 205
-291 303 -256 318 -432 644 -542 1007 -51 167 -65 225 -59 241 3 8 73 40 154
73 146 57 150 60 212 126 109 116 86 115 -163 -9 -137 -70 -222 -106 -226
-100 -9 15 -37 195 -49 318 -15 151 -12 524 5 684 66 628 307 1188 721 1677
100 119 340 351 459 446 497 394 1095 625 1715 664 167 11 518 2 660 -16z"/>
<path d="M4590 6445 c-15 -18 -5 -35 21 -35 12 0 19 7 19 19 0 24 -25 34 -40
16z"/>
<path d="M5240 6167 c0 -19 -46 -67 -64 -67 -6 0 -3 -5 8 -11 31 -19 56 -48
56 -66 0 -13 4 -12 13 7 7 13 28 35 46 47 19 13 27 23 19 23 -15 0 -46 31 -66
66 -11 18 -11 18 -12 1z"/>
<path d="M4387 6104 c-11 -12 -8 -41 6 -53 22 -17 55 12 41 36 -12 19 -36 28
-47 17z"/>
<path d="M4756 6044 c-9 -22 17 -49 39 -40 10 3 15 15 13 28 -4 29 -42 37 -52
12z"/>
<path d="M3967 5833 c-15 -14 -7 -43 12 -43 24 0 33 13 25 34 -6 16 -25 21
-37 9z"/>
<path d="M4481 5816 c-9 -10 -8 -16 4 -26 19 -16 41 1 32 24 -8 20 -21 20 -36
2z"/>
<path d="M4040 5760 c0 -13 7 -20 20 -20 13 0 20 7 20 20 0 13 -7 20 -20 20
-13 0 -20 -7 -20 -20z"/>
<path d="M4114 5719 c-8 -14 21 -43 35 -35 19 12 13 46 -8 46 -11 0 -23 -5
-27 -11z"/>
<path d="M4764 5665 c-4 -9 -2 -21 4 -27 15 -15 44 -1 40 19 -4 23 -36 29 -44
8z"/>
<path d="M4002 5608 c2 -13 10 -23 18 -23 8 0 16 10 18 23 3 17 -2 22 -18 22
-16 0 -21 -5 -18 -22z"/>
<path d="M3358 5605 c-175 -35 -297 -161 -355 -367 -14 -51 -18 -101 -17 -263
0 -178 3 -214 27 -326 63 -298 176 -592 352 -914 58 -106 72 -124 95 -118 11
3 20 8 20 11 0 3 -40 87 -89 186 -380 769 -462 1353 -226 1605 57 60 110 93
190 116 87 26 279 16 399 -20 259 -77 566 -258 873 -513 170 -141 545 -517
720 -722 l141 -165 -80 -8 c-205 -19 -376 -124 -446 -275 -23 -48 -27 -71 -27
-142 0 -73 4 -93 28 -142 17 -35 48 -75 78 -101 51 -45 208 -129 244 -130 11
-1 88 41 170 92 192 120 275 173 275 176 0 2 -29 14 -250 106 -162 66 -180 79
-180 128 0 90 135 142 279 106 39 -9 71 -21 71 -27 0 -5 17 -32 38 -61 145
-200 316 -504 423 -752 22 -49 44 -98 50 -109 9 -15 4 -26 -32 -62 l-43 -44
62 0 c46 0 62 -4 62 -14 0 -7 11 -49 25 -92 64 -201 105 -422 105 -574 0 -114
-30 -254 -71 -330 -99 -186 -317 -257 -598 -194 -35 8 -66 13 -68 10 -2 -2 35
-13 84 -25 309 -72 524 -8 621 186 100 199 86 553 -38 953 -11 36 -20 68 -20
72 0 4 50 9 110 10 l110 3 -45 55 c-25 30 -45 59 -45 63 0 5 9 40 21 78 l21
69 215 -2 215 -3 25 -63 26 -64 -69 -69 -68 -69 379 0 379 0 -67 68 -67 68
-161 404 c-88 223 -184 464 -213 535 l-52 130 -125 3 -124 2 -98 -69 c-125
-88 -135 -97 -146 -135 -121 -421 -244 -842 -252 -863 l-11 -28 -16 35 c-63
140 -162 337 -229 455 -102 179 -249 405 -264 405 -7 0 -10 2 -7 5 5 6 88 -39
140 -76 14 -11 29 -19 32 -19 4 0 5 33 2 73 -2 39 -5 118 -5 175 -1 60 -5 102
-11 102 -5 0 -32 -16 -60 -36 l-50 -36 -96 19 -96 19 -62 81 c-173 228 -535
609 -756 797 -410 349 -812 569 -1133 621 -109 18 -149 18 -239 0z m3331
-2059 c45 -113 81 -207 81 -210 0 -3 -65 -6 -145 -6 -80 0 -145 4 -145 8 0 11
111 395 117 405 2 4 6 7 8 7 2 0 40 -92 84 -204z"/>
<path d="M5242 5401 c-21 -13 -10 -46 16 -49 27 -4 40 22 22 43 -14 17 -20 18
-38 6z"/>
<path d="M3751 5188 c-1 -16 -7 -28 -13 -28 -17 -1 -76 -50 -60 -50 26 0 72
-44 73 -69 l1 -26 8 26 c10 36 45 69 73 70 21 0 21 1 -3 10 -29 12 -51 34 -67
69 l-12 25 0 -27z"/>
<path d="M3384 5185 c-4 -9 -2 -21 4 -27 15 -15 44 -1 40 19 -4 23 -36 29 -44
8z"/>
<path d="M3497 5046 c-7 -17 18 -40 33 -31 5 3 10 15 10 26 0 23 -35 27 -43 5z"/>
<path d="M5170 4183 c-158 -58 -710 -251 -785 -274 -64 -19 -64 -15 -1 -173
43 -108 62 -146 75 -146 9 0 55 11 101 24 47 13 137 38 200 55 159 44 156 42
164 92 10 64 63 154 121 207 102 92 197 133 341 148 l63 7 -19 26 c-11 14 -34
42 -52 63 l-33 36 -175 -65z"/>
<path d="M1918 4017 l62 -63 0 -473 0 -474 -65 -65 c-36 -36 -63 -67 -61 -69
2 -2 92 -2 202 -1 l198 3 -57 67 -57 67 0 316 c0 173 3 315 8 315 4 0 52 -77
107 -171 55 -93 156 -266 226 -382 l125 -212 269 -3 270 -2 -68 68 -67 68 0
479 0 479 57 58 57 58 -199 0 -199 0 57 -58 58 -58 0 -309 c0 -169 -2 -310 -5
-312 -3 -3 -174 274 -210 341 -6 11 -62 105 -124 209 l-113 187 -267 0 -266 0
62 -63z"/>
<path d="M3705 4020 l59 -60 -49 -167 c-26 -93 -54 -188 -61 -213 -6 -25 -46
-164 -89 -310 l-76 -265 -67 -67 -66 -68 193 0 c153 0 191 3 184 13 -5 6 -26
33 -46 58 -20 25 -37 49 -37 53 0 5 9 39 21 77 21 68 21 69 56 69 20 0 32 -4
28 -10 -12 -20 389 -550 416 -550 6 0 21 8 34 18 l23 19 -115 144 c-64 79
-151 189 -195 244 -43 55 -86 108 -94 118 -14 17 -7 17 142 15 l156 -3 24 -64
25 -65 -68 -68 -67 -68 282 0 283 0 44 25 c68 40 73 51 41 84 -18 19 -92 192
-239 562 l-213 534 -294 3 -295 2 60 -60z m255 -479 c44 -111 80 -204 80 -206
0 -3 -65 -5 -145 -5 -80 0 -145 3 -145 8 0 7 106 376 115 401 3 8 8 12 10 9 3
-2 41 -95 85 -207z"/>
<path d="M3866 3699 c-22 -62 -77 -271 -73 -275 5 -6 167 33 176 42 5 4 -78
224 -90 238 -5 5 -10 3 -13 -5z"/>
<path d="M6391 4065 c9 -9 23 -13 32 -9 28 10 19 24 -15 24 -29 0 -31 -2 -17
-15z"/>
<path d="M5373 3901 c-42 -20 -77 -61 -50 -61 15 0 217 67 225 75 3 3 -26 5
-64 5 -46 0 -83 -7 -111 -19z"/>
<path d="M3440 3600 c-113 -38 -253 -85 -312 -106 l-108 -36 0 -114 c0 -63 2
-114 5 -114 18 0 542 133 548 140 9 8 86 266 87 288 0 16 12 19 -220 -58z"/>
<path d="M5765 3439 c-49 -33 -134 -87 -187 -122 -53 -34 -96 -66 -94 -72 1
-5 22 -21 47 -35 31 -19 47 -36 55 -61 20 -57 -15 -98 -105 -125 -62 -19 -166
-14 -260 11 -62 16 -54 19 -199 -77 l-73 -49 2 -45 c2 -24 6 -48 9 -54 4 -6
33 10 69 37 l63 47 92 -23 c124 -31 294 -39 405 -17 165 31 311 127 366 240
31 64 35 169 10 250 -16 51 -79 147 -100 152 -5 1 -50 -24 -100 -57z"/>
<path d="M2260 3179 c-52 -22 -97 -44 -100 -49 -9 -14 4 -135 15 -135 24 0
285 81 285 88 0 21 -77 137 -90 136 -8 0 -58 -18 -110 -40z"/>
<path d="M4936 3133 c4 -21 8 -39 9 -41 1 -1 13 7 26 18 l24 20 -25 20 c-36
28 -42 25 -34 -17z"/>
<path d="M3412 2817 c-15 -17 1 -42 23 -33 18 6 17 37 -1 43 -6 2 -16 -2 -22
-10z"/>
<path d="M6632 2603 c2 -10 12 -18 23 -18 11 0 21 8 23 18 3 13 -3 17 -23 17
-20 0 -26 -4 -23 -17z"/>
<path d="M7070 2539 c0 -17 -48 -59 -68 -59 -14 -1 -14 -2 3 -12 11 -6 24 -17
28 -25 4 -7 14 -13 22 -13 7 0 15 -10 18 -22 3 -22 4 -22 12 -4 11 25 36 50
61 61 19 8 19 8 0 13 -22 5 -55 41 -56 60 0 15 -20 16 -20 1z"/>
<path d="M4295 2484 c-11 -8 -26 -19 -34 -24 -12 -6 -2 -24 45 -86 133 -176
268 -294 337 -294 32 0 77 39 77 68 0 37 -56 95 -175 182 -33 25 -94 73 -136
107 -43 35 -81 63 -85 63 -5 0 -18 -8 -29 -16z"/>
<path d="M6686 2454 c-9 -22 17 -49 39 -40 10 3 15 15 13 28 -4 29 -42 37 -52
12z"/>
<path d="M6220 2426 c0 -30 30 -43 47 -21 16 23 5 45 -23 45 -19 0 -24 -5 -24
-24z"/>
<path d="M7144 2265 c-4 -8 -3 -22 0 -31 8 -21 50 -14 54 10 6 31 -43 50 -54
21z"/>
<path d="M5972 2248 c2 -13 10 -23 18 -23 8 0 16 10 18 23 3 17 -2 22 -18 22
-16 0 -21 -5 -18 -22z"/>
<path d="M6220 2215 c-18 -21 -5 -47 22 -43 26 3 37 36 16 49 -18 12 -24 11
-38 -6z"/>
<path d="M3414 2205 c-9 -23 3 -45 26 -45 25 0 37 25 20 45 -16 19 -39 19 -46
0z"/>
<path d="M6984 2195 c-4 -9 -2 -21 4 -27 15 -15 44 -1 40 19 -4 23 -36 29 -44
8z"/>
<path d="M2561 2046 c-15 -18 -4 -46 18 -46 27 0 42 20 30 42 -12 21 -32 23
-48 4z"/>
<path d="M2204 2009 c-3 -6 0 -18 9 -26 18 -18 37 -9 37 18 0 21 -34 27 -46 8z"/>
<path d="M6690 1911 c0 -24 25 -34 40 -16 15 18 5 35 -21 35 -12 0 -19 -7 -19
-19z"/>
<path d="M3081 1891 c-19 -12 -6 -43 16 -39 10 2 18 12 18 22 0 22 -14 29 -34
17z"/>
<path d="M5970 1880 c0 -13 7 -20 20 -20 13 0 20 7 20 20 0 13 -7 20 -20 20
-13 0 -20 -7 -20 -20z"/>
<path d="M2522 1848 c2 -13 10 -23 18 -23 8 0 16 10 18 23 3 17 -2 22 -18 22
-16 0 -21 -5 -18 -22z"/>
<path d="M6780 1828 c0 -18 -7 -29 -20 -33 -11 -3 -20 -11 -20 -16 0 -5 -10
-14 -22 -19 -19 -7 -20 -9 -4 -9 20 -1 57 -42 68 -75 l6 -21 1 21 c1 21 44 67
71 77 11 4 10 6 -4 6 -21 1 -40 22 -61 66 l-14 30 -1 -27z"/>
<path d="M2655 1766 c-16 -12 -18 -18 -9 -33 14 -23 34 -23 48 -1 8 14 7 21
-5 33 -13 13 -17 13 -34 1z"/>
<path d="M6930 1761 c0 -24 25 -34 40 -16 15 18 5 35 -21 35 -12 0 -19 -7 -19
-19z"/>
<path d="M3624 1745 c-8 -21 2 -45 19 -45 21 0 38 25 31 44 -8 20 -43 21 -50
1z"/>
<path d="M5023 1724 c-7 -18 14 -35 34 -27 7 3 13 14 13 24 0 24 -38 26 -47 3z"/>
<path d="M4394 1505 c-4 -9 -2 -21 4 -27 15 -15 44 -1 40 19 -4 23 -36 29 -44
8z"/>
<path d="M3300 1490 c0 -16 5 -21 23 -18 12 2 22 10 22 18 0 8 -10 16 -22 18
-18 3 -23 -2 -23 -18z"/>
<path d="M3677 1444 c-16 -16 -7 -44 14 -44 15 0 20 5 17 22 -3 22 -19 33 -31
22z"/>
<path d="M6097 1193 c-15 -14 -7 -43 12 -43 26 0 36 17 21 35 -14 16 -23 19
-33 8z"/>
<path d="M3401 1174 c-1 -22 -33 -56 -66 -69 -20 -8 -20 -9 1 -12 25 -5 60
-40 67 -68 5 -19 5 -19 6 1 1 24 37 60 66 66 l20 5 -20 8 c-21 9 -55 47 -67
74 -5 13 -7 11 -7 -5z"/>
</g>
</svg>
