<?xml version="1.0" standalone="no"?>
<!DOCTYPE svg PUBLIC "-//W3C//DTD SVG 20010904//EN"
 "http://www.w3.org/TR/2001/REC-SVG-20010904/DTD/svg10.dtd">
<svg version="1.0" xmlns="http://www.w3.org/2000/svg"
 width="20.000000pt" height="20.000000pt" viewBox="0 0 612.000000 475.000000"
 preserveAspectRatio="xMidYMid meet">

<g transform="translate(0.000000,475.000000) scale(0.100000,-0.100000)"
fill="#000000" stroke="none">
<path d="M579 3839 c-10 -10 -19 -26 -19 -34 0 -31 24 -66 49 -70 172 -34 262
-71 339 -140 98 -88 132 -153 357 -670 8 -16 39 -88 70 -160 54 -124 65 -149
105 -240 10 -22 41 -94 70 -160 67 -154 88 -203 105 -240 8 -16 28 -64 46
-105 17 -41 39 -93 49 -115 10 -22 39 -89 65 -150 26 -60 56 -128 65 -150 10
-22 42 -94 70 -160 47 -109 62 -142 105 -240 8 -16 39 -88 70 -160 31 -71 62
-143 70 -160 7 -16 21 -50 31 -74 35 -84 72 -109 123 -81 15 7 155 244 185
310 3 8 17 33 29 55 13 22 65 117 116 210 52 94 126 229 166 300 40 72 87 157
105 190 18 33 43 78 55 100 12 22 37 68 55 102 18 35 37 63 42 63 5 0 20 -26
34 -57 14 -31 53 -113 86 -182 106 -220 255 -532 345 -721 193 -404 179 -380
229 -380 28 0 38 6 59 40 14 22 25 43 25 46 0 4 11 30 24 58 13 28 34 74 46
101 12 28 30 68 40 90 10 22 62 139 115 260 54 121 108 245 122 275 54 120 64
142 84 188 11 26 26 61 34 77 8 17 50 113 95 215 45 102 90 204 101 227 31 69
56 126 72 163 55 127 113 256 176 393 17 37 31 73 31 80 0 7 4 17 9 23 5 5 26
47 46 94 20 47 44 103 54 125 11 22 31 67 46 100 42 93 69 147 90 180 109 176
170 225 330 265 50 12 96 27 103 32 6 6 12 28 12 49 0 44 -16 57 -70 53 -19
-1 -113 -8 -208 -15 -120 -8 -224 -9 -335 -3 -89 4 -214 9 -277 9 l-115 0 0
-55 0 -55 40 -3 c79 -6 170 -40 209 -78 49 -48 59 -74 58 -164 0 -84 -11 -121
-84 -290 -80 -187 -124 -288 -178 -415 -28 -66 -58 -133 -65 -150 -8 -16 -29
-64 -46 -105 -17 -41 -37 -88 -44 -105 -8 -16 -28 -64 -45 -105 -34 -79 -52
-120 -80 -185 -10 -22 -29 -67 -43 -100 -28 -65 -121 -281 -142 -330 -7 -16
-27 -64 -45 -105 -35 -83 -55 -129 -90 -208 l-24 -53 -149 303 c-322 652 -417
849 -417 862 0 7 18 46 41 87 22 41 47 88 55 104 8 17 27 53 42 80 15 28 47
86 71 130 86 158 152 280 161 295 5 8 19 33 30 55 24 47 45 84 60 105 5 8 25
38 43 65 131 205 220 268 426 305 30 5 58 15 63 22 13 22 9 86 -6 95 -8 5 -73
4 -143 0 -183 -12 -490 -13 -688 -3 -192 10 -199 8 -199 -61 0 -39 15 -53 59
-53 48 0 153 -36 192 -66 51 -39 66 -83 60 -174 -5 -78 -26 -132 -113 -290
-64 -118 -205 -380 -237 -443 -11 -21 -24 -34 -28 -30 -5 5 -53 98 -107 208
-270 545 -272 550 -272 622 0 48 19 88 54 114 24 18 163 59 200 59 48 0 56 9
56 61 0 31 -5 51 -14 56 -8 4 -88 4 -178 -1 -209 -11 -634 -11 -807 0 -106 7
-137 6 -152 -4 -40 -28 -9 -112 41 -112 11 0 52 -9 90 -19 108 -30 171 -82
241 -196 57 -94 57 -94 199 -390 40 -82 88 -184 107 -225 20 -41 76 -158 124
-259 49 -101 89 -185 89 -187 0 -2 18 -41 40 -85 22 -45 40 -86 40 -93 0 -11
-26 -63 -90 -181 -37 -69 -93 -173 -175 -330 -32 -60 -77 -147 -101 -192 -24
-44 -64 -121 -89 -170 -26 -48 -51 -88 -56 -88 -6 0 -44 77 -85 170 -90 203
-101 228 -124 280 -10 22 -71 159 -135 305 -65 146 -125 283 -135 305 -24 54
-36 81 -130 295 -45 102 -90 203 -100 225 -10 22 -37 83 -60 135 -23 52 -50
113 -60 135 -108 241 -114 259 -114 327 0 55 5 73 27 107 44 66 135 113 247
128 19 3 41 12 48 21 16 21 15 63 -2 87 -13 19 -22 20 -167 14 -85 -4 -240
-10 -346 -14 -167 -7 -601 5 -721 20 -23 3 -39 -2 -53 -16z"/>
</g>
</svg>
