<?xml version="1.0" standalone="no"?>
<!DOCTYPE svg PUBLIC "-//W3C//DTD SVG 20010904//EN"
 "http://www.w3.org/TR/2001/REC-SVG-20010904/DTD/svg10.dtd">
<svg version="1.0" xmlns="http://www.w3.org/2000/svg"
 width="20.000000pt" height="20.000000pt" viewBox="0 0 806.000000 625.000000"
 preserveAspectRatio="xMidYMid meet">

<g transform="translate(0.000000,625.000000) scale(0.100000,-0.100000)"
fill="#000000" stroke="none">
<path d="M2960 5560 c-107 -4 -226 -10 -265 -14 -38 -3 -153 -11 -255 -16
-183 -11 -224 -15 -470 -44 -269 -33 -500 -87 -634 -150 -218 -102 -382 -335
-505 -716 -64 -196 -84 -282 -130 -555 -58 -345 -76 -557 -76 -920 1 -334 2
-360 51 -730 85 -647 284 -1119 557 -1319 205 -150 687 -229 1692 -276 284
-14 1637 -14 1910 0 980 47 1457 124 1699 270 314 191 516 730 583 1556 40
499 7 1228 -72 1594 -8 36 -17 83 -21 105 -7 47 -47 202 -76 295 -88 287 -229
519 -378 623 -135 95 -380 166 -725 212 -60 8 -141 19 -180 25 -38 5 -133 14
-210 20 -77 5 -207 14 -290 20 -82 6 -265 15 -405 20 -288 11 -1504 11 -1800
0z m1700 -270 c301 -10 833 -37 865 -44 11 -3 90 -12 175 -21 243 -25 452 -69
594 -123 196 -75 321 -257 421 -613 47 -167 81 -355 115 -649 39 -331 39
-1052 -1 -1360 -5 -41 -16 -129 -24 -195 -9 -66 -20 -133 -25 -150 -5 -16 -14
-59 -20 -95 -24 -135 -88 -328 -150 -453 -73 -145 -174 -253 -285 -302 -66
-29 -218 -72 -302 -85 -37 -6 -87 -15 -109 -20 -81 -18 -503 -59 -714 -69
-631 -31 -746 -33 -1465 -28 -998 6 -1542 34 -1905 98 -63 11 -128 22 -145 25
-62 11 -191 56 -246 85 -60 32 -161 127 -205 194 -33 50 -107 196 -129 256
-103 281 -163 613 -205 1139 -13 162 -4 532 19 770 49 504 126 852 247 1106
105 222 219 327 420 388 79 24 298 64 414 76 58 6 134 15 170 20 91 14 592 41
860 46 124 3 232 7 240 8 34 8 1136 4 1390 -4z"/>
<path d="M3509 4210 c-51 -19 -112 -79 -141 -138 l-23 -47 0 -845 0 -845 24
-49 c57 -115 120 -156 238 -156 64 0 87 4 125 25 37 19 171 113 233 162 6 5
91 67 190 138 99 71 185 133 190 137 25 20 145 107 190 138 28 19 55 38 60 42
15 12 78 58 140 103 184 132 210 169 210 300 0 109 -35 182 -112 235 -102 71
-150 105 -160 114 -6 6 -27 21 -45 34 -18 13 -74 53 -124 90 -50 37 -117 85
-149 107 -31 22 -72 52 -90 68 -18 15 -35 27 -38 27 -3 0 -42 27 -86 61 -45
33 -101 75 -125 92 -228 163 -278 196 -322 211 -58 19 -128 18 -185 -4z m231
-345 c30 -22 60 -43 65 -47 20 -16 87 -65 232 -170 81 -59 234 -169 338 -245
105 -76 206 -150 225 -163 19 -14 41 -31 48 -37 7 -7 18 -13 23 -13 21 0 6
-19 -47 -56 -30 -21 -80 -57 -109 -79 -30 -22 -76 -56 -102 -75 -27 -19 -53
-39 -60 -45 -6 -5 -27 -20 -45 -33 -18 -13 -82 -59 -143 -103 -60 -44 -146
-105 -190 -136 -44 -31 -117 -84 -161 -117 -117 -87 -133 -99 -165 -119 l-29
-19 0 772 0 772 33 -24 c17 -13 57 -42 87 -63z"/>
</g>
</svg>
